{
	"asset":{
		"generator":"Khronos glTF Blender I/O v4.2.69",
		"version":"2.0"
	},
	"scene":0,
	"scenes":[
		{
			"name":"Scene",
			"nodes":[
				0,
				1,
				2
			]
		}
	],
	"nodes":[
		{
			"mesh":0,
			"name":"17-Culex_GLAVA_dec075"
		},
		{
			"mesh":1,
			"name":"17-Culex_OPRSJE_dec075"
		},
		{
			"mesh":2,
			"name":"17-Culex_ZADEK_dec075"
		}
	],
	"materials":[
		{
			"doubleSided":true,
			"name":"Glava",
			"pbrMetallicRoughness":{
				"baseColorFactor":[
					0.7990981936454773,
					0.6724439859390259,
					0.18447519838809967,
					1
				],
				"metallicFactor":0,
				"roughnessFactor":0.5
			}
		},
		{
			"doubleSided":true,
			"name":"Oprsje",
			"pbrMetallicRoughness":{
				"baseColorFactor":[
					0.18447324633598328,
					0.3564002513885498,
					0.7991031408309937,
					1
				],
				"metallicFactor":0,
				"roughnessFactor":0.5
			}
		},
		{
			"doubleSided":true,
			"name":"Zadek",
			"pbrMetallicRoughness":{
				"baseColorFactor":[
					0.7990987300872803,
					0.1620294600725174,
					0.14126339554786682,
					1
				],
				"metallicFactor":0,
				"roughnessFactor":0.5
			}
		}
	],
	"meshes":[
		{
			"name":"17-Culex_GLAVA_dec075",
			"primitives":[
				{
					"attributes":{
						"POSITION":0,
						"NORMAL":1
					},
					"indices":2,
					"material":0
				}
			]
		},
		{
			"name":"17-Culex_OPRSJE_dec075",
			"primitives":[
				{
					"attributes":{
						"POSITION":3,
						"NORMAL":4
					},
					"indices":5,
					"material":1
				}
			]
		},
		{
			"name":"17-Culex_ZADEK_dec075",
			"primitives":[
				{
					"attributes":{
						"POSITION":6,
						"NORMAL":7
					},
					"indices":8,
					"material":2
				}
			]
		}
	],
	"accessors":[
		{
			"bufferView":0,
			"componentType":5126,
			"count":13580,
			"max":[
				6.956249713897705,
				11.27125072479248,
				-2.7512500286102295
			],
			"min":[
				3.6762502193450928,
				8.861249923706055,
				-6.791249752044678
			],
			"type":"VEC3"
		},
		{
			"bufferView":1,
			"componentType":5126,
			"count":13580,
			"type":"VEC3"
		},
		{
			"bufferView":2,
			"componentType":5123,
			"count":81150,
			"type":"SCALAR"
		},
		{
			"bufferView":3,
			"componentType":5126,
			"count":165025,
			"max":[
				9.731249809265137,
				11.18125057220459,
				-1.8812499046325684
			],
			"min":[
				0.6512500047683716,
				0.021250000223517418,
				-6.961250305175781
			],
			"type":"VEC3"
		},
		{
			"bufferView":4,
			"componentType":5126,
			"count":165025,
			"type":"VEC3"
		},
		{
			"bufferView":5,
			"componentType":5125,
			"count":990075,
			"type":"SCALAR"
		},
		{
			"bufferView":6,
			"componentType":5126,
			"count":30121,
			"max":[
				7.886249542236328,
				9.166250228881836,
				-4.011250019073486
			],
			"min":[
				7.006249904632568,
				5.476249694824219,
				-4.881250381469727
			],
			"type":"VEC3"
		},
		{
			"bufferView":7,
			"componentType":5126,
			"count":30121,
			"type":"VEC3"
		},
		{
			"bufferView":8,
			"componentType":5123,
			"count":180684,
			"type":"SCALAR"
		}
	],
	"bufferViews":[
		{
			"buffer":0,
			"byteLength":162960,
			"byteOffset":0,
			"target":34962
		},
		{
			"buffer":0,
			"byteLength":162960,
			"byteOffset":162960,
			"target":34962
		},
		{
			"buffer":0,
			"byteLength":162300,
			"byteOffset":325920,
			"target":34963
		},
		{
			"buffer":0,
			"byteLength":1980300,
			"byteOffset":488220,
			"target":34962
		},
		{
			"buffer":0,
			"byteLength":1980300,
			"byteOffset":2468520,
			"target":34962
		},
		{
			"buffer":0,
			"byteLength":3960300,
			"byteOffset":4448820,
			"target":34963
		},
		{
			"buffer":0,
			"byteLength":361452,
			"byteOffset":8409120,
			"target":34962
		},
		{
			"buffer":0,
			"byteLength":361452,
			"byteOffset":8770572,
			"target":34962
		},
		{
			"buffer":0,
			"byteLength":361368,
			"byteOffset":9132024,
			"target":34963
		}
	],
	"buffers":[
		{
			"byteLength":9493392,
			"uri":"17-Culex.bin"
		}
	]
}
