{
	"asset":{
		"generator":"Khronos glTF Blender I/O v4.2.69",
		"version":"2.0"
	},
	"scene":0,
	"scenes":[
		{
			"name":"Scene",
			"nodes":[
				0,
				1,
				2
			]
		}
	],
	"nodes":[
		{
			"mesh":0,
			"name":"47-Sphaeroma_GLAVOPRSJE_dec075"
		},
		{
			"mesh":1,
			"name":"47-Sphaeroma_PEREON_dec075"
		},
		{
			"mesh":2,
			"name":"47-Sphaeroma_PLEON_dec075"
		}
	],
	"materials":[
		{
			"doubleSided":true,
			"name":"Glavoprsje",
			"pbrMetallicRoughness":{
				"baseColorFactor":[
					0.7990984916687012,
					0.40724068880081177,
					0.1412634402513504,
					1
				],
				"metallicFactor":0,
				"roughnessFactor":0.5
			}
		},
		{
			"doubleSided":true,
			"name":"Pereon",
			"pbrMetallicRoughness":{
				"baseColorFactor":[
					0.30946651101112366,
					0.799103856086731,
					0.2788945138454437,
					1
				],
				"metallicFactor":0,
				"roughnessFactor":0.5
			}
		},
		{
			"doubleSided":true,
			"name":"Pleon",
			"pbrMetallicRoughness":{
				"baseColorFactor":[
					1,
					0.5775808095932007,
					0.8631575703620911,
					1
				],
				"metallicFactor":0,
				"roughnessFactor":0.5
			}
		}
	],
	"meshes":[
		{
			"name":"47-Sphaeroma_GLAVOPRSJE_dec075",
			"primitives":[
				{
					"attributes":{
						"POSITION":0,
						"NORMAL":1
					},
					"indices":2,
					"material":0
				}
			]
		},
		{
			"name":"47-Sphaeroma_PEREON_dec075",
			"primitives":[
				{
					"attributes":{
						"POSITION":3,
						"NORMAL":4
					},
					"indices":5,
					"material":1
				}
			]
		},
		{
			"name":"47-Sphaeroma_PLEON_dec075",
			"primitives":[
				{
					"attributes":{
						"POSITION":6,
						"NORMAL":7
					},
					"indices":8,
					"material":2
				}
			]
		}
	],
	"accessors":[
		{
			"bufferView":0,
			"componentType":5126,
			"count":213961,
			"max":[
				5.97599983215332,
				10.355999946594238,
				-0.3840000033378601
			],
			"min":[
				1.7359999418258667,
				6.9079999923706055,
				-5.311999797821045
			],
			"type":"VEC3"
		},
		{
			"bufferView":1,
			"componentType":5126,
			"count":213961,
			"type":"VEC3"
		},
		{
			"bufferView":2,
			"componentType":5125,
			"count":1282665,
			"type":"SCALAR"
		},
		{
			"bufferView":3,
			"componentType":5126,
			"count":757819,
			"max":[
				6.119999885559082,
				9.796000480651855,
				-0.8759999871253967
			],
			"min":[
				1.808000087738037,
				0.02800000086426735,
				-6.283999919891357
			],
			"type":"VEC3"
		},
		{
			"bufferView":4,
			"componentType":5126,
			"count":757819,
			"type":"VEC3"
		},
		{
			"bufferView":5,
			"componentType":5125,
			"count":4547427,
			"type":"SCALAR"
		},
		{
			"bufferView":6,
			"componentType":5126,
			"count":569957,
			"max":[
				5.888000011444092,
				5.516000270843506,
				-2.0320000648498535
			],
			"min":[
				1.968000054359436,
				0.30799999833106995,
				-6.639999866485596
			],
			"type":"VEC3"
		},
		{
			"bufferView":7,
			"componentType":5126,
			"count":569957,
			"type":"VEC3"
		},
		{
			"bufferView":8,
			"componentType":5125,
			"count":3420867,
			"type":"SCALAR"
		}
	],
	"bufferViews":[
		{
			"buffer":0,
			"byteLength":2567532,
			"byteOffset":0,
			"target":34962
		},
		{
			"buffer":0,
			"byteLength":2567532,
			"byteOffset":2567532,
			"target":34962
		},
		{
			"buffer":0,
			"byteLength":5130660,
			"byteOffset":5135064,
			"target":34963
		},
		{
			"buffer":0,
			"byteLength":9093828,
			"byteOffset":10265724,
			"target":34962
		},
		{
			"buffer":0,
			"byteLength":9093828,
			"byteOffset":19359552,
			"target":34962
		},
		{
			"buffer":0,
			"byteLength":18189708,
			"byteOffset":28453380,
			"target":34963
		},
		{
			"buffer":0,
			"byteLength":6839484,
			"byteOffset":46643088,
			"target":34962
		},
		{
			"buffer":0,
			"byteLength":6839484,
			"byteOffset":53482572,
			"target":34962
		},
		{
			"buffer":0,
			"byteLength":13683468,
			"byteOffset":60322056,
			"target":34963
		}
	],
	"buffers":[
		{
			"byteLength":74005524,
			"uri":"47-Sphaeroma.bin"
		}
	]
}
